# xmcd
#
# Track frame offsets:
#	150
#	92245
#	121130
#	133720
#	206337
#	232965
#	273517
#	304585
#	306705
#	322976
#
# Disc length: 4440 seconds
#
# Revision: 1
# Processed by: cddbd v1.5.2PL0 Copyright (c) Steve Scherf et al.
# Submitted via: audiograbber 1.83.01
#
DISCID=8811560a
DTITLE=Grateful Dead - 73-04-02 Boston Garden, Boston MA
DYEAR=1900
DGENRE=
TTITLE0=Here Comes Sunshine
TTITLE1=Me and Bobby McGee
TTITLE2=Weather Report Prelude
TTITLE3=Eyes Of The World
TTITLE4=China Doll
TTITLE5=Sugar Magnolia
TTITLE6=Casey Jones
TTITLE7=Stage Banter
TTITLE8=Johnny B Goode
TTITLE9=We Bid You Goodnight
EXTD=
EXTT0=
EXTT1=
EXTT2=
EXTT3=
EXTT4=
EXTT5=
EXTT6=
EXTT7=
EXTT8=
EXTT9=
PLAYORDER=
